<svg width="111" height="108" viewBox="0 0 111 108" fill="none" xmlns="http://www.w3.org/2000/svg">
<path d="M36.9987 86.8433C36.9987 87.2893 36.4858 87.6462 35.839 87.6462C35.1031 87.7131 34.5901 87.3562 34.5901 86.8433C34.5901 86.3972 35.1031 86.0404 35.7498 86.0404C36.4189 85.9735 36.9987 86.3303 36.9987 86.8433ZM30.0629 85.8397C29.9067 86.2857 30.3528 86.7987 31.0218 86.9325C31.6017 87.1555 32.2707 86.9325 32.4045 86.4865C32.5384 86.0404 32.1146 85.5275 31.4456 85.3268C30.8657 85.1707 30.219 85.3937 30.0629 85.8397ZM39.9203 85.4606C39.2735 85.6167 38.8275 86.0404 38.8944 86.5534C38.9613 86.9994 39.5411 87.2893 40.2102 87.1332C40.8569 86.9771 41.303 86.5534 41.2361 86.1073C41.1692 85.6836 40.567 85.3937 39.9203 85.4606ZM54.5949 0C23.6622 0 0 23.4838 0 54.4164C0 79.1492 15.5667 100.314 37.8016 107.762C40.6562 108.275 41.6598 106.513 41.6598 105.064C41.6598 103.681 41.5929 96.0539 41.5929 91.3706C41.5929 91.3706 25.9816 94.7158 22.7033 84.7246C22.7033 84.7246 20.1608 78.2348 16.5033 76.5621C16.5033 76.5621 11.3962 73.0608 16.8602 73.1277C16.8602 73.1277 22.4133 73.5737 25.4687 78.8815C30.3528 87.49 38.5375 85.0145 41.7267 83.5426C42.2396 79.9743 43.6893 77.4988 45.295 76.0269C32.8283 74.6442 20.2501 72.8377 20.2501 51.3834C20.2501 45.2504 21.945 42.1727 25.5133 38.2476C24.9334 36.798 23.0378 30.8211 26.0931 23.1047C30.7542 21.6551 41.4814 29.1262 41.4814 29.1262C45.9417 27.8773 50.7366 27.2305 55.4869 27.2305C60.2372 27.2305 65.0321 27.8773 69.4925 29.1262C69.4925 29.1262 80.2196 21.6328 84.8807 23.1047C87.9361 30.8434 86.0404 36.798 85.4606 38.2476C89.0289 42.195 91.2144 45.2727 91.2144 51.3834C91.2144 72.9046 78.0787 74.6219 65.612 76.0269C67.6637 77.7887 69.4033 81.134 69.4033 86.3749C69.4033 93.8907 69.3364 103.191 69.3364 105.019C69.3364 106.469 70.3622 108.231 73.1946 107.718C95.4964 100.314 110.617 79.1492 110.617 54.4164C110.617 23.4838 85.5275 0 54.5949 0ZM21.6774 76.919C21.3874 77.142 21.4544 77.6549 21.8335 78.0787C22.1903 78.4355 22.7033 78.5916 22.9932 78.3017C23.2831 78.0787 23.2162 77.5657 22.8371 77.142C22.4802 76.7852 21.9673 76.6291 21.6774 76.919ZM19.2688 75.1125C19.1127 75.4025 19.3357 75.7593 19.7817 75.9823C20.1385 76.2053 20.5846 76.1384 20.7407 75.8262C20.8968 75.5363 20.6738 75.1794 20.2277 74.9564C19.7817 74.8226 19.4249 74.8895 19.2688 75.1125ZM26.4946 83.052C26.1377 83.3419 26.2715 84.011 26.7845 84.4347C27.2974 84.9476 27.9442 85.0145 28.2341 84.6577C28.524 84.3678 28.3902 83.6987 27.9442 83.275C27.4535 82.7621 26.7845 82.6951 26.4946 83.052ZM23.9522 79.7736C23.5953 79.9966 23.5953 80.5765 23.9522 81.0894C24.309 81.6024 24.9111 81.8254 25.2011 81.6024C25.5579 81.3124 25.5579 80.7326 25.2011 80.2196C24.8888 79.7067 24.309 79.4837 23.9522 79.7736Z" fill="#FF7094"/>
</svg>
