<svg width="111" height="97" viewBox="0 0 111 97" fill="none" xmlns="http://www.w3.org/2000/svg">
<path d="M99.0368 6.98311C86.5491 -3.51686 67.256 -1.9397 55.3085 10.2238C43.361 -1.9397 24.0679 -3.53846 11.5802 6.98311C-4.66663 20.659 -2.29009 42.9552 9.29012 54.7731L47.1851 93.381C49.3456 95.5847 52.2406 96.8162 55.3085 96.8162C58.398 96.8162 61.2714 95.6063 63.4319 93.4026L101.327 54.7947C112.885 42.9768 115.305 20.6806 99.0368 6.98311ZM93.938 47.4922L56.0431 86.1002C55.5245 86.6187 55.0925 86.6187 54.5739 86.1002L16.679 47.4922C8.79321 39.4552 7.19445 24.2454 18.2561 14.9337C26.6604 7.86891 39.6234 8.92755 47.7468 17.2022L55.3085 24.9152L62.8702 17.2022C71.0368 8.88434 83.9998 7.86891 92.3609 14.9121C103.401 24.2238 101.759 39.52 93.938 47.4922Z" fill="#FF7094"/>
</svg>
