<svg width="111" height="111" viewBox="0 0 111 111" fill="none" xmlns="http://www.w3.org/2000/svg">
<path d="M55.3209 26.9417C39.6259 26.9417 26.9664 39.6013 26.9664 55.2962C26.9664 70.9911 39.6259 83.6507 55.3209 83.6507C71.0158 83.6507 83.6753 70.9911 83.6753 55.2962C83.6753 39.6013 71.0158 26.9417 55.3209 26.9417ZM55.3209 73.7303C45.1784 73.7303 36.8867 65.4633 36.8867 55.2962C36.8867 45.129 45.1537 36.8621 55.3209 36.8621C65.488 36.8621 73.755 45.129 73.755 55.2962C73.755 65.4633 65.4633 73.7303 55.3209 73.7303ZM91.4488 25.7818C91.4488 29.4588 88.4875 32.3954 84.8352 32.3954C81.1582 32.3954 78.2216 29.4341 78.2216 25.7818C78.2216 22.1296 81.1829 19.1683 84.8352 19.1683C88.4875 19.1683 91.4488 22.1296 91.4488 25.7818ZM110.228 32.4941C109.809 23.6349 107.785 15.7874 101.295 9.32194C94.8296 2.85642 86.9821 0.832867 78.1229 0.388671C68.9922 -0.129557 41.6248 -0.129557 32.4941 0.388671C23.6596 0.808189 15.8121 2.83175 9.32194 9.29726C2.83175 15.7628 0.832867 23.6102 0.388671 32.4695C-0.129557 41.6001 -0.129557 68.9675 0.388671 78.0982C0.808189 86.9574 2.83175 94.8049 9.32194 101.27C15.8121 107.736 23.6349 109.759 32.4941 110.204C41.6248 110.722 68.9922 110.722 78.1229 110.204C86.9821 109.784 94.8296 107.761 101.295 101.27C107.761 94.8049 109.784 86.9574 110.228 78.0982C110.747 68.9675 110.747 41.6248 110.228 32.4941ZM98.4325 87.8952C96.5077 92.732 92.7813 96.4583 87.9199 98.4078C80.64 101.295 63.3657 100.629 55.3209 100.629C47.276 100.629 29.977 101.27 22.7218 98.4078C17.885 96.483 14.1587 92.7567 12.2092 87.8952C9.32194 80.6153 9.98823 63.341 9.98823 55.2962C9.98823 47.2513 9.34661 29.9524 12.2092 22.6972C14.1341 17.8604 17.8604 14.1341 22.7218 12.1845C30.0017 9.29726 47.276 9.96355 55.3209 9.96355C63.3657 9.96355 80.6647 9.32194 87.9199 12.1845C92.7567 14.1094 96.483 17.8357 98.4325 22.6972C101.32 29.977 100.653 47.2513 100.653 55.2962C100.653 63.341 101.32 80.64 98.4325 87.8952Z" fill="#FF7094"/>
</svg>
