<svg width="111" height="111" viewBox="0 0 111 111" fill="none" xmlns="http://www.w3.org/2000/svg">
<path d="M102.716 0H7.87652C3.53086 0 0 3.58024 0 7.97529V102.642C0 107.037 3.53086 110.617 7.87652 110.617H102.716C107.061 110.617 110.617 107.037 110.617 102.642V7.97529C110.617 3.58024 107.061 0 102.716 0ZM33.432 94.8146H17.037V42.0246H33.4567V94.8146H33.432ZM25.2345 34.8147C19.9753 34.8147 15.7284 30.5431 15.7284 25.3086C15.7284 20.074 19.9753 15.8024 25.2345 15.8024C30.4691 15.8024 34.7407 20.074 34.7407 25.3086C34.7407 30.5678 30.4938 34.8147 25.2345 34.8147ZM94.8887 94.8146H78.4936V69.1356C78.4936 63.0122 78.3702 55.1357 69.9751 55.1357C61.432 55.1357 60.1233 61.8023 60.1233 68.6912V94.8146H43.7283V42.0246H59.4567V49.2345H59.6789C61.8764 45.0863 67.2344 40.716 75.2097 40.716C91.8023 40.716 94.8887 51.6542 94.8887 65.8764V94.8146Z" fill="#FF7094"/>
</svg>
