<svg width="1280" height="720" viewBox="0 0 1280 720" fill="none" xmlns="http://www.w3.org/2000/svg">
<g clip-path="url(#clip0_8_355)">
<rect width="1280" height="720" fill="white"/>
<g style="mix-blend-mode:multiply">
<rect x="14.8458" y="-32.1541" width="41.4468" height="866.154" fill="#FFEEF2"/>
<rect x="823.482" y="-32.1541" width="40.601" height="866.154" fill="#FFEEF2"/>
<rect x="742.28" y="-32.1541" width="40.601" height="866.154" fill="#FFEEF2"/>
<rect x="661.078" y="-32.1541" width="40.601" height="866.154" fill="#FFEEF2"/>
<rect x="579.876" y="-32.1541" width="40.601" height="866.154" fill="#FFEEF2"/>
<rect x="499.52" y="-32.1541" width="40.601" height="866.154" fill="#FFEEF2"/>
<rect x="418.318" y="-33" width="40.601" height="866.154" fill="#FFEEF2"/>
<rect x="337.116" y="-32.1541" width="40.601" height="866.154" fill="#FFEEF2"/>
<rect x="259.298" y="-32.1541" width="40.601" height="866.154" fill="#FFEEF2"/>
<rect x="178.096" y="-32.1541" width="40.601" height="866.154" fill="#FFEEF2"/>
<rect x="96.8937" y="-32.1541" width="40.601" height="866.154" fill="#FFEEF2"/>
</g>
<g style="mix-blend-mode:multiply">
<rect x="-3" y="19" width="41" height="1280" transform="rotate(-90 -3 19)" fill="#FFEEF2"/>
<rect x="-3" y="100" width="40" height="1280" transform="rotate(-90 -3 100)" fill="#FFEEF2"/>
<rect x="-3" y="181" width="40" height="1280" transform="rotate(-90 -3 181)" fill="#FFEEF2"/>
<rect x="-3" y="263" width="41" height="1280" transform="rotate(-90 -3 263)" fill="#FFEEF2"/>
<rect x="-3" y="343" width="41" height="1280" transform="rotate(-90 -3 343)" fill="#FFEEF2"/>
<rect x="-4" y="424" width="41" height="1281" transform="rotate(-90 -4 424)" fill="#FFEEF2"/>
<rect x="-3" y="505" width="40" height="1280" transform="rotate(-90 -3 505)" fill="#FFEEF2"/>
<rect x="-3" y="583" width="41" height="1280" transform="rotate(-90 -3 583)" fill="#FFEEF2"/>
<rect x="-3" y="664" width="40" height="1280" transform="rotate(-90 -3 664)" fill="#FFEEF2"/>
<rect x="-3.15417" y="745.494" width="40.601" height="866.154" transform="rotate(-90 -3.15417 745.494)" fill="#FFEEF2"/>
</g>
<path d="M66.3684 29.3281C69.0844 27.1532 73.1236 27.5444 75.6165 29.9615L76.5928 30.9069L77.5692 29.9615C80.0571 27.5444 84.1013 27.1532 86.8172 29.3281C89.9296 31.8243 90.0932 36.3045 87.3079 39.0103L77.7179 48.3153C77.0984 48.916 76.0923 48.916 75.4728 48.3153L65.8828 39.0103C63.0925 36.3045 63.256 31.8243 66.3684 29.3281Z" fill="#FFD7E0"/>
<path d="M147.57 29.4438C150.286 27.0925 154.325 27.5155 156.818 30.1285L157.795 31.1505L158.771 30.1285C161.259 27.5155 165.303 27.0925 168.019 29.4438C171.132 32.1424 171.295 36.9858 168.51 39.911L158.92 49.9704C158.3 50.6199 157.294 50.6199 156.675 49.9704L147.085 39.911C144.294 36.9858 144.458 32.1424 147.57 29.4438Z" fill="#FFD7E0"/>
<path d="M228.772 29.4438C231.488 27.0925 235.527 27.5155 238.02 30.1285L238.997 31.1505L239.973 30.1285C242.461 27.5155 246.505 27.0925 249.221 29.4438C252.334 32.1424 252.497 36.9858 249.712 39.911L240.122 49.9704C239.502 50.6199 238.496 50.6199 237.877 49.9704L228.287 39.911C225.496 36.9858 225.66 32.1424 228.772 29.4438Z" fill="#FFD7E0"/>
<path d="M309.128 29.4438C311.844 27.0925 315.884 27.5155 318.376 30.1285L319.353 31.1505L320.329 30.1285C322.817 27.5155 326.861 27.0925 329.577 29.4438C332.69 32.1424 332.853 36.9858 330.068 39.911L320.478 49.9704C319.858 50.6199 318.852 50.6199 318.233 49.9704L308.643 39.911C305.852 36.9858 306.016 32.1424 309.128 29.4438Z" fill="#FFD7E0"/>
<path d="M389.485 29.4438C392.2 27.0925 396.24 27.5155 398.733 30.1285L399.709 31.1505L400.685 30.1285C403.173 27.5155 407.217 27.0925 409.933 29.4438C413.046 32.1424 413.209 36.9858 410.424 39.911L400.834 49.9704C400.214 50.6199 399.208 50.6199 398.589 49.9704L388.999 39.911C386.209 36.9858 386.372 32.1424 389.485 29.4438Z" fill="#FFD7E0"/>
<path d="M470.686 29.4438C473.402 27.0925 477.442 27.5155 479.934 30.1285L480.911 31.1505L481.887 30.1285C484.375 27.5155 488.419 27.0925 491.135 29.4438C494.248 32.1424 494.411 36.9858 491.626 39.911L482.036 49.9704C481.416 50.6199 480.41 50.6199 479.791 49.9704L470.201 39.911C467.41 36.9858 467.574 32.1424 470.686 29.4438Z" fill="#FFD7E0"/>
<path d="M551.043 29.4438C553.758 27.0925 557.798 27.5155 560.291 30.1285L561.267 31.1505L562.243 30.1285C564.731 27.5155 568.775 27.0925 571.491 29.4438C574.604 32.1424 574.767 36.9858 571.982 39.911L562.392 49.9704C561.772 50.6199 560.766 50.6199 560.147 49.9704L550.557 39.911C547.767 36.9858 547.93 32.1424 551.043 29.4438Z" fill="#FFD7E0"/>
<path d="M630.553 29.4438C633.269 27.0925 637.308 27.5155 639.801 30.1285L640.777 31.1505L641.754 30.1285C644.241 27.5155 648.286 27.0925 651.002 29.4438C654.114 32.1424 654.278 36.9858 651.492 39.911L641.902 49.9704C641.283 50.6199 640.277 50.6199 639.657 49.9704L630.067 39.911C627.277 36.9858 627.44 32.1424 630.553 29.4438Z" fill="#FFD7E0"/>
<path d="M712.601 29.4438C715.317 27.0925 719.356 27.5155 721.849 30.1285L722.825 31.1505L723.801 30.1285C726.289 27.5155 730.333 27.0925 733.049 29.4438C736.162 32.1424 736.325 36.9858 733.54 39.911L723.95 49.9704C723.331 50.6199 722.324 50.6199 721.705 49.9704L712.115 39.911C709.325 36.9858 709.488 32.1424 712.601 29.4438Z" fill="#FFD7E0"/>
<path d="M793.803 29.4438C796.518 27.0925 800.558 27.5155 803.051 30.1285L804.027 31.1505L805.003 30.1285C807.491 27.5155 811.535 27.0925 814.251 29.4438C817.364 32.1424 817.527 36.9858 814.742 39.911L805.152 49.9704C804.532 50.6199 803.526 50.6199 802.907 49.9704L793.317 39.911C790.527 36.9858 790.69 32.1424 793.803 29.4438Z" fill="#FFD7E0"/>
<path d="M66.3684 109.8C69.0844 107.449 73.1236 107.872 75.6165 110.485L76.5928 111.507L77.5692 110.485C80.0571 107.872 84.1013 107.449 86.8172 109.8C89.9296 112.499 90.0932 117.342 87.3079 120.267L77.7179 130.327C77.0984 130.976 76.0923 130.976 75.4728 130.327L65.8828 120.267C63.0925 117.342 63.256 112.499 66.3684 109.8Z" fill="#FFD7E0"/>
<path d="M147.57 109.8C150.286 107.449 154.325 107.872 156.818 110.485L157.795 111.507L158.771 110.485C161.259 107.872 165.303 107.449 168.019 109.8C171.132 112.499 171.295 117.342 168.51 120.267L158.92 130.327C158.3 130.976 157.294 130.976 156.675 130.327L147.085 120.267C144.294 117.342 144.458 112.499 147.57 109.8Z" fill="#FFD7E0"/>
<path d="M228.772 109.8C231.488 107.449 235.527 107.872 238.02 110.485L238.997 111.507L239.973 110.485C242.461 107.872 246.505 107.449 249.221 109.8C252.334 112.499 252.497 117.342 249.712 120.267L240.122 130.327C239.502 130.976 238.496 130.976 237.877 130.327L228.287 120.267C225.496 117.342 225.66 112.499 228.772 109.8Z" fill="#FFD7E0"/>
<path d="M309.128 109.8C311.844 107.449 315.884 107.872 318.376 110.485L319.353 111.507L320.329 110.485C322.817 107.872 326.861 107.449 329.577 109.8C332.69 112.499 332.853 117.342 330.068 120.267L320.478 130.327C319.858 130.976 318.852 130.976 318.233 130.327L308.643 120.267C305.852 117.342 306.016 112.499 309.128 109.8Z" fill="#FFD7E0"/>
<path d="M389.485 109.8C392.2 107.449 396.24 107.872 398.733 110.485L399.709 111.507L400.685 110.485C403.173 107.872 407.217 107.449 409.933 109.8C413.046 112.499 413.209 117.342 410.424 120.267L400.834 130.327C400.214 130.976 399.208 130.976 398.589 130.327L388.999 120.267C386.209 117.342 386.372 112.499 389.485 109.8Z" fill="#FFD7E0"/>
<path d="M470.686 109.8C473.402 107.449 477.442 107.872 479.934 110.485L480.911 111.507L481.887 110.485C484.375 107.872 488.419 107.449 491.135 109.8C494.248 112.499 494.411 117.342 491.626 120.267L482.036 130.327C481.416 130.976 480.41 130.976 479.791 130.327L470.201 120.267C467.41 117.342 467.574 112.499 470.686 109.8Z" fill="#FFD7E0"/>
<path d="M551.043 109.8C553.758 107.449 557.798 107.872 560.291 110.485L561.267 111.507L562.243 110.485C564.731 107.872 568.775 107.449 571.491 109.8C574.604 112.499 574.767 117.342 571.982 120.267L562.392 130.327C561.772 130.976 560.766 130.976 560.147 130.327L550.557 120.267C547.767 117.342 547.93 112.499 551.043 109.8Z" fill="#FFD7E0"/>
<path d="M630.553 109.8C633.269 107.449 637.308 107.872 639.801 110.485L640.777 111.507L641.754 110.485C644.241 107.872 648.286 107.449 651.002 109.8C654.114 112.499 654.278 117.342 651.492 120.267L641.902 130.327C641.283 130.976 640.277 130.976 639.657 130.327L630.067 120.267C627.277 117.342 627.44 112.499 630.553 109.8Z" fill="#FFD7E0"/>
<path d="M712.601 109.8C715.317 107.449 719.356 107.872 721.849 110.485L722.825 111.507L723.801 110.485C726.289 107.872 730.333 107.449 733.049 109.8C736.162 112.499 736.325 117.342 733.54 120.267L723.95 130.327C723.331 130.976 722.324 130.976 721.705 130.327L712.115 120.267C709.325 117.342 709.488 112.499 712.601 109.8Z" fill="#FFD7E0"/>
<path d="M793.803 109.8C796.518 107.449 800.558 107.872 803.051 110.485L804.027 111.507L805.003 110.485C807.491 107.872 811.535 107.449 814.251 109.8C817.364 112.499 817.527 117.342 814.742 120.267L805.152 130.327C804.532 130.976 803.526 130.976 802.907 130.327L793.317 120.267C790.527 117.342 790.69 112.499 793.803 109.8Z" fill="#FFD7E0"/>
<path d="M66.3684 191.002C69.0844 188.651 73.1236 189.074 75.6165 191.687L76.5928 192.709L77.5692 191.687C80.0571 189.074 84.1013 188.651 86.8172 191.002C89.9296 193.7 90.0932 198.544 87.3079 201.469L77.7179 211.528C77.0984 212.178 76.0923 212.178 75.4728 211.528L65.8828 201.469C63.0925 198.544 63.256 193.7 66.3684 191.002Z" fill="#FFD7E0"/>
<path d="M147.57 191.002C150.286 188.651 154.325 189.074 156.818 191.687L157.795 192.709L158.771 191.687C161.259 189.074 165.303 188.651 168.019 191.002C171.132 193.7 171.295 198.544 168.51 201.469L158.92 211.528C158.3 212.178 157.294 212.178 156.675 211.528L147.085 201.469C144.294 198.544 144.458 193.7 147.57 191.002Z" fill="#FFD7E0"/>
<path d="M228.772 191.002C231.488 188.651 235.527 189.074 238.02 191.687L238.997 192.709L239.973 191.687C242.461 189.074 246.505 188.651 249.221 191.002C252.334 193.7 252.497 198.544 249.712 201.469L240.122 211.528C239.502 212.178 238.496 212.178 237.877 211.528L228.287 201.469C225.496 198.544 225.66 193.7 228.772 191.002Z" fill="#FFD7E0"/>
<path d="M309.128 191.002C311.844 188.651 315.884 189.074 318.376 191.687L319.353 192.709L320.329 191.687C322.817 189.074 326.861 188.651 329.577 191.002C332.69 193.7 332.853 198.544 330.068 201.469L320.478 211.528C319.858 212.178 318.852 212.178 318.233 211.528L308.643 201.469C305.852 198.544 306.016 193.7 309.128 191.002Z" fill="#FFD7E0"/>
<path d="M389.485 191.002C392.2 188.651 396.24 189.074 398.733 191.687L399.709 192.709L400.685 191.687C403.173 189.074 407.217 188.651 409.933 191.002C413.046 193.7 413.209 198.544 410.424 201.469L400.834 211.528C400.214 212.178 399.208 212.178 398.589 211.528L388.999 201.469C386.209 198.544 386.372 193.7 389.485 191.002Z" fill="#FFD7E0"/>
<path d="M470.686 191.002C473.402 188.651 477.442 189.074 479.934 191.687L480.911 192.709L481.887 191.687C484.375 189.074 488.419 188.651 491.135 191.002C494.248 193.7 494.411 198.544 491.626 201.469L482.036 211.528C481.416 212.178 480.41 212.178 479.791 211.528L470.201 201.469C467.41 198.544 467.574 193.7 470.686 191.002Z" fill="#FFD7E0"/>
<path d="M551.043 191.002C553.758 188.651 557.798 189.074 560.291 191.687L561.267 192.709L562.243 191.687C564.731 189.074 568.775 188.651 571.491 191.002C574.604 193.7 574.767 198.544 571.982 201.469L562.392 211.528C561.772 212.178 560.766 212.178 560.147 211.528L550.557 201.469C547.767 198.544 547.93 193.7 551.043 191.002Z" fill="#FFD7E0"/>
<path d="M630.553 191.002C633.269 188.651 637.308 189.074 639.801 191.687L640.777 192.709L641.754 191.687C644.241 189.074 648.286 188.651 651.002 191.002C654.114 193.7 654.278 198.544 651.492 201.469L641.902 211.528C641.283 212.178 640.277 212.178 639.657 211.528L630.067 201.469C627.277 198.544 627.44 193.7 630.553 191.002Z" fill="#FFD7E0"/>
<path d="M712.601 191.002C715.317 188.651 719.356 189.074 721.849 191.687L722.825 192.709L723.801 191.687C726.289 189.074 730.333 188.651 733.049 191.002C736.162 193.7 736.325 198.544 733.54 201.469L723.95 211.528C723.331 212.178 722.324 212.178 721.705 211.528L712.115 201.469C709.325 198.544 709.488 193.7 712.601 191.002Z" fill="#FFD7E0"/>
<path d="M793.803 191.002C796.518 188.651 800.558 189.074 803.051 191.687L804.027 192.709L805.003 191.687C807.491 189.074 811.535 188.651 814.251 191.002C817.364 193.7 817.527 198.544 814.742 201.469L805.152 211.528C804.532 212.178 803.526 212.178 802.907 211.528L793.317 201.469C790.527 198.544 790.69 193.7 793.803 191.002Z" fill="#FFD7E0"/>
<path d="M66.3684 271.358C69.0844 269.007 73.1236 269.43 75.6165 272.043L76.5928 273.065L77.5692 272.043C80.0571 269.43 84.1013 269.007 86.8172 271.358C89.9296 274.057 90.0932 278.9 87.3079 281.825L77.7179 291.885C77.0984 292.534 76.0923 292.534 75.4728 291.885L65.8828 281.825C63.0925 278.9 63.256 274.057 66.3684 271.358Z" fill="#FFD7E0"/>
<path d="M147.57 271.358C150.286 269.007 154.325 269.43 156.818 272.043L157.795 273.065L158.771 272.043C161.259 269.43 165.303 269.007 168.019 271.358C171.132 274.057 171.295 278.9 168.51 281.825L158.92 291.885C158.3 292.534 157.294 292.534 156.675 291.885L147.085 281.825C144.294 278.9 144.458 274.057 147.57 271.358Z" fill="#FFD7E0"/>
<path d="M228.772 271.358C231.488 269.007 235.527 269.43 238.02 272.043L238.997 273.065L239.973 272.043C242.461 269.43 246.505 269.007 249.221 271.358C252.334 274.057 252.497 278.9 249.712 281.825L240.122 291.885C239.502 292.534 238.496 292.534 237.877 291.885L228.287 281.825C225.496 278.9 225.66 274.057 228.772 271.358Z" fill="#FFD7E0"/>
<path d="M309.128 271.358C311.844 269.007 315.884 269.43 318.376 272.043L319.353 273.065L320.329 272.043C322.817 269.43 326.861 269.007 329.577 271.358C332.69 274.057 332.853 278.9 330.068 281.825L320.478 291.885C319.858 292.534 318.852 292.534 318.233 291.885L308.643 281.825C305.852 278.9 306.016 274.057 309.128 271.358Z" fill="#FFD7E0"/>
<path d="M389.485 271.358C392.2 269.007 396.24 269.43 398.733 272.043L399.709 273.065L400.685 272.043C403.173 269.43 407.217 269.007 409.933 271.358C413.046 274.057 413.209 278.9 410.424 281.825L400.834 291.885C400.214 292.534 399.208 292.534 398.589 291.885L388.999 281.825C386.209 278.9 386.372 274.057 389.485 271.358Z" fill="#FFD7E0"/>
<path d="M470.686 271.358C473.402 269.007 477.442 269.43 479.934 272.043L480.911 273.065L481.887 272.043C484.375 269.43 488.419 269.007 491.135 271.358C494.248 274.057 494.411 278.9 491.626 281.825L482.036 291.885C481.416 292.534 480.41 292.534 479.791 291.885L470.201 281.825C467.41 278.9 467.574 274.057 470.686 271.358Z" fill="#FFD7E0"/>
<path d="M551.043 271.358C553.758 269.007 557.798 269.43 560.291 272.043L561.267 273.065L562.243 272.043C564.731 269.43 568.775 269.007 571.491 271.358C574.604 274.057 574.767 278.9 571.982 281.825L562.392 291.885C561.772 292.534 560.766 292.534 560.147 291.885L550.557 281.825C547.767 278.9 547.93 274.057 551.043 271.358Z" fill="#FFD7E0"/>
<path d="M630.553 271.358C633.269 269.007 637.308 269.43 639.801 272.043L640.777 273.065L641.754 272.043C644.241 269.43 648.286 269.007 651.002 271.358C654.114 274.057 654.278 278.9 651.492 281.825L641.902 291.885C641.283 292.534 640.277 292.534 639.657 291.885L630.067 281.825C627.277 278.9 627.44 274.057 630.553 271.358Z" fill="#FFD7E0"/>
<path d="M712.601 271.358C715.317 269.007 719.356 269.43 721.849 272.043L722.825 273.065L723.801 272.043C726.289 269.43 730.333 269.007 733.049 271.358C736.162 274.057 736.325 278.9 733.54 281.825L723.95 291.885C723.331 292.534 722.324 292.534 721.705 291.885L712.115 281.825C709.325 278.9 709.488 274.057 712.601 271.358Z" fill="#FFD7E0"/>
<path d="M793.803 271.358C796.518 269.007 800.558 269.43 803.051 272.043L804.027 273.065L805.003 272.043C807.491 269.43 811.535 269.007 814.251 271.358C817.364 274.057 817.527 278.9 814.742 281.825L805.152 291.885C804.532 292.534 803.526 292.534 802.907 291.885L793.317 281.825C790.527 278.9 790.69 274.057 793.803 271.358Z" fill="#FFD7E0"/>
<path d="M66.3684 353.406C69.0844 351.054 73.1236 351.477 75.6165 354.09L76.5928 355.112L77.5692 354.09C80.0571 351.477 84.1013 351.054 86.8172 353.406C89.9296 356.104 90.0932 360.948 87.3079 363.873L77.7179 373.932C77.0984 374.582 76.0923 374.582 75.4728 373.932L65.8828 363.873C63.0925 360.948 63.256 356.104 66.3684 353.406Z" fill="#FFD7E0"/>
<path d="M147.57 353.406C150.286 351.054 154.325 351.477 156.818 354.09L157.795 355.112L158.771 354.09C161.259 351.477 165.303 351.054 168.019 353.406C171.132 356.104 171.295 360.948 168.51 363.873L158.92 373.932C158.3 374.582 157.294 374.582 156.675 373.932L147.085 363.873C144.294 360.948 144.458 356.104 147.57 353.406Z" fill="#FFD7E0"/>
<path d="M228.772 353.406C231.488 351.054 235.527 351.477 238.02 354.09L238.997 355.112L239.973 354.09C242.461 351.477 246.505 351.054 249.221 353.406C252.334 356.104 252.497 360.948 249.712 363.873L240.122 373.932C239.502 374.582 238.496 374.582 237.877 373.932L228.287 363.873C225.496 360.948 225.66 356.104 228.772 353.406Z" fill="#FFD7E0"/>
<path d="M309.128 353.406C311.844 351.054 315.884 351.477 318.376 354.09L319.353 355.112L320.329 354.09C322.817 351.477 326.861 351.054 329.577 353.406C332.69 356.104 332.853 360.948 330.068 363.873L320.478 373.932C319.858 374.582 318.852 374.582 318.233 373.932L308.643 363.873C305.852 360.948 306.016 356.104 309.128 353.406Z" fill="#FFD7E0"/>
<path d="M389.485 353.406C392.2 351.054 396.24 351.477 398.733 354.09L399.709 355.112L400.685 354.09C403.173 351.477 407.217 351.054 409.933 353.406C413.046 356.104 413.209 360.948 410.424 363.873L400.834 373.932C400.214 374.582 399.208 374.582 398.589 373.932L388.999 363.873C386.209 360.948 386.372 356.104 389.485 353.406Z" fill="#FFD7E0"/>
<path d="M470.686 353.406C473.402 351.054 477.442 351.477 479.934 354.09L480.911 355.112L481.887 354.09C484.375 351.477 488.419 351.054 491.135 353.406C494.248 356.104 494.411 360.948 491.626 363.873L482.036 373.932C481.416 374.582 480.41 374.582 479.791 373.932L470.201 363.873C467.41 360.948 467.574 356.104 470.686 353.406Z" fill="#FFD7E0"/>
<path d="M551.043 353.406C553.758 351.054 557.798 351.477 560.291 354.09L561.267 355.112L562.243 354.09C564.731 351.477 568.775 351.054 571.491 353.406C574.604 356.104 574.767 360.948 571.982 363.873L562.392 373.932C561.772 374.582 560.766 374.582 560.147 373.932L550.557 363.873C547.767 360.948 547.93 356.104 551.043 353.406Z" fill="#FFD7E0"/>
<path d="M630.553 353.406C633.269 351.054 637.308 351.477 639.801 354.09L640.777 355.112L641.754 354.09C644.241 351.477 648.286 351.054 651.002 353.406C654.114 356.104 654.278 360.948 651.492 363.873L641.902 373.932C641.283 374.582 640.277 374.582 639.657 373.932L630.067 363.873C627.277 360.948 627.44 356.104 630.553 353.406Z" fill="#FFD7E0"/>
<path d="M712.601 353.406C715.317 351.054 719.356 351.477 721.849 354.09L722.825 355.112L723.801 354.09C726.289 351.477 730.333 351.054 733.049 353.406C736.162 356.104 736.325 360.948 733.54 363.873L723.95 373.932C723.331 374.582 722.324 374.582 721.705 373.932L712.115 363.873C709.325 360.948 709.488 356.104 712.601 353.406Z" fill="#FFD7E0"/>
<path d="M793.803 353.406C796.518 351.054 800.558 351.477 803.051 354.09L804.027 355.112L805.003 354.09C807.491 351.477 811.535 351.054 814.251 353.406C817.364 356.104 817.527 360.948 814.742 363.873L805.152 373.932C804.532 374.582 803.526 374.582 802.907 373.932L793.317 363.873C790.527 360.948 790.69 356.104 793.803 353.406Z" fill="#FFD7E0"/>
<path d="M66.3684 433.762C69.0844 431.411 73.1236 431.834 75.6165 434.447L76.5928 435.469L77.5692 434.447C80.0571 431.834 84.1013 431.411 86.8172 433.762C89.9296 436.46 90.0932 441.304 87.3079 444.229L77.7179 454.288C77.0984 454.938 76.0923 454.938 75.4728 454.288L65.8828 444.229C63.0925 441.304 63.256 436.46 66.3684 433.762Z" fill="#FFD7E0"/>
<path d="M147.57 433.762C150.286 431.411 154.325 431.834 156.818 434.447L157.795 435.469L158.771 434.447C161.259 431.834 165.303 431.411 168.019 433.762C171.132 436.46 171.295 441.304 168.51 444.229L158.92 454.288C158.3 454.938 157.294 454.938 156.675 454.288L147.085 444.229C144.294 441.304 144.458 436.46 147.57 433.762Z" fill="#FFD7E0"/>
<path d="M228.772 433.762C231.488 431.411 235.527 431.834 238.02 434.447L238.997 435.469L239.973 434.447C242.461 431.834 246.505 431.411 249.221 433.762C252.334 436.46 252.497 441.304 249.712 444.229L240.122 454.288C239.502 454.938 238.496 454.938 237.877 454.288L228.287 444.229C225.496 441.304 225.66 436.46 228.772 433.762Z" fill="#FFD7E0"/>
<path d="M309.128 433.762C311.844 431.411 315.884 431.834 318.376 434.447L319.353 435.469L320.329 434.447C322.817 431.834 326.861 431.411 329.577 433.762C332.69 436.46 332.853 441.304 330.068 444.229L320.478 454.288C319.858 454.938 318.852 454.938 318.233 454.288L308.643 444.229C305.852 441.304 306.016 436.46 309.128 433.762Z" fill="#FFD7E0"/>
<path d="M389.485 433.762C392.2 431.411 396.24 431.834 398.733 434.447L399.709 435.469L400.685 434.447C403.173 431.834 407.217 431.411 409.933 433.762C413.046 436.46 413.209 441.304 410.424 444.229L400.834 454.288C400.214 454.938 399.208 454.938 398.589 454.288L388.999 444.229C386.209 441.304 386.372 436.46 389.485 433.762Z" fill="#FFD7E0"/>
<path d="M470.686 433.762C473.402 431.411 477.442 431.834 479.934 434.447L480.911 435.469L481.887 434.447C484.375 431.834 488.419 431.411 491.135 433.762C494.248 436.46 494.411 441.304 491.626 444.229L482.036 454.288C481.416 454.938 480.41 454.938 479.791 454.288L470.201 444.229C467.41 441.304 467.574 436.46 470.686 433.762Z" fill="#FFD7E0"/>
<path d="M551.043 433.762C553.758 431.411 557.798 431.834 560.291 434.447L561.267 435.469L562.243 434.447C564.731 431.834 568.775 431.411 571.491 433.762C574.604 436.46 574.767 441.304 571.982 444.229L562.392 454.288C561.772 454.938 560.766 454.938 560.147 454.288L550.557 444.229C547.767 441.304 547.93 436.46 551.043 433.762Z" fill="#FFD7E0"/>
<path d="M630.553 433.762C633.269 431.411 637.308 431.834 639.801 434.447L640.777 435.469L641.754 434.447C644.241 431.834 648.286 431.411 651.002 433.762C654.114 436.46 654.278 441.304 651.492 444.229L641.902 454.288C641.283 454.938 640.277 454.938 639.657 454.288L630.067 444.229C627.277 441.304 627.44 436.46 630.553 433.762Z" fill="#FFD7E0"/>
<path d="M712.601 433.762C715.317 431.411 719.356 431.834 721.849 434.447L722.825 435.469L723.801 434.447C726.289 431.834 730.333 431.411 733.049 433.762C736.162 436.46 736.325 441.304 733.54 444.229L723.95 454.288C723.331 454.938 722.324 454.938 721.705 454.288L712.115 444.229C709.325 441.304 709.488 436.46 712.601 433.762Z" fill="#FFD7E0"/>
<path d="M793.803 433.762C796.518 431.411 800.558 431.834 803.051 434.447L804.027 435.469L805.003 434.447C807.491 431.834 811.535 431.411 814.251 433.762C817.364 436.46 817.527 441.304 814.742 444.229L805.152 454.288C804.532 454.938 803.526 454.938 802.907 454.288L793.317 444.229C790.527 441.304 790.69 436.46 793.803 433.762Z" fill="#FFD7E0"/>
<path d="M66.3684 513.272C69.0844 510.921 73.1236 511.344 75.6165 513.957L76.5928 514.979L77.5692 513.957C80.0571 511.344 84.1013 510.921 86.8172 513.272C89.9296 515.971 90.0932 520.814 87.3079 523.739L77.7179 533.799C77.0984 534.448 76.0923 534.448 75.4728 533.799L65.8828 523.739C63.0925 520.814 63.256 515.971 66.3684 513.272Z" fill="#FFD7E0"/>
<path d="M147.57 513.272C150.286 510.921 154.325 511.344 156.818 513.957L157.795 514.979L158.771 513.957C161.259 511.344 165.303 510.921 168.019 513.272C171.132 515.971 171.295 520.814 168.51 523.739L158.92 533.799C158.3 534.448 157.294 534.448 156.675 533.799L147.085 523.739C144.294 520.814 144.458 515.971 147.57 513.272Z" fill="#FFD7E0"/>
<path d="M228.772 513.272C231.488 510.921 235.527 511.344 238.02 513.957L238.997 514.979L239.973 513.957C242.461 511.344 246.505 510.921 249.221 513.272C252.334 515.971 252.497 520.814 249.712 523.739L240.122 533.799C239.502 534.448 238.496 534.448 237.877 533.799L228.287 523.739C225.496 520.814 225.66 515.971 228.772 513.272Z" fill="#FFD7E0"/>
<path d="M309.128 513.272C311.844 510.921 315.884 511.344 318.376 513.957L319.353 514.979L320.329 513.957C322.817 511.344 326.861 510.921 329.577 513.272C332.69 515.971 332.853 520.814 330.068 523.739L320.478 533.799C319.858 534.448 318.852 534.448 318.233 533.799L308.643 523.739C305.852 520.814 306.016 515.971 309.128 513.272Z" fill="#FFD7E0"/>
<path d="M389.485 513.272C392.2 510.921 396.24 511.344 398.733 513.957L399.709 514.979L400.685 513.957C403.173 511.344 407.217 510.921 409.933 513.272C413.046 515.971 413.209 520.814 410.424 523.739L400.834 533.799C400.214 534.448 399.208 534.448 398.589 533.799L388.999 523.739C386.209 520.814 386.372 515.971 389.485 513.272Z" fill="#FFD7E0"/>
<path d="M470.686 513.272C473.402 510.921 477.442 511.344 479.934 513.957L480.911 514.979L481.887 513.957C484.375 511.344 488.419 510.921 491.135 513.272C494.248 515.971 494.411 520.814 491.626 523.739L482.036 533.799C481.416 534.448 480.41 534.448 479.791 533.799L470.201 523.739C467.41 520.814 467.574 515.971 470.686 513.272Z" fill="#FFD7E0"/>
<path d="M551.043 513.272C553.758 510.921 557.798 511.344 560.291 513.957L561.267 514.979L562.243 513.957C564.731 511.344 568.775 510.921 571.491 513.272C574.604 515.971 574.767 520.814 571.982 523.739L562.392 533.799C561.772 534.448 560.766 534.448 560.147 533.799L550.557 523.739C547.767 520.814 547.93 515.971 551.043 513.272Z" fill="#FFD7E0"/>
<path d="M630.553 513.272C633.269 510.921 637.308 511.344 639.801 513.957L640.777 514.979L641.754 513.957C644.241 511.344 648.286 510.921 651.002 513.272C654.114 515.971 654.278 520.814 651.492 523.739L641.902 533.799C641.283 534.448 640.277 534.448 639.657 533.799L630.067 523.739C627.277 520.814 627.44 515.971 630.553 513.272Z" fill="#FFD7E0"/>
<path d="M712.601 513.272C715.317 510.921 719.356 511.344 721.849 513.957L722.825 514.979L723.801 513.957C726.289 511.344 730.333 510.921 733.049 513.272C736.162 515.971 736.325 520.814 733.54 523.739L723.95 533.799C723.331 534.448 722.324 534.448 721.705 533.799L712.115 523.739C709.325 520.814 709.488 515.971 712.601 513.272Z" fill="#FFD7E0"/>
<path d="M793.803 513.272C796.518 510.921 800.558 511.344 803.051 513.957L804.027 514.979L805.003 513.957C807.491 511.344 811.535 510.921 814.251 513.272C817.364 515.971 817.527 520.814 814.742 523.739L805.152 533.799C804.532 534.448 803.526 534.448 802.907 533.799L793.317 523.739C790.527 520.814 790.69 515.971 793.803 513.272Z" fill="#FFD7E0"/>
<path d="M66.3684 592.782C69.0844 590.431 73.1236 590.854 75.6165 593.467L76.5928 594.489L77.5692 593.467C80.0571 590.854 84.1013 590.431 86.8172 592.782C89.9296 595.481 90.0932 600.324 87.3079 603.25L77.7179 613.309C77.0984 613.958 76.0923 613.958 75.4728 613.309L65.8828 603.25C63.0925 600.324 63.256 595.481 66.3684 592.782Z" fill="#FFD7E0"/>
<path d="M147.57 592.782C150.286 590.431 154.325 590.854 156.818 593.467L157.795 594.489L158.771 593.467C161.259 590.854 165.303 590.431 168.019 592.782C171.132 595.481 171.295 600.324 168.51 603.25L158.92 613.309C158.3 613.958 157.294 613.958 156.675 613.309L147.085 603.25C144.294 600.324 144.458 595.481 147.57 592.782Z" fill="#FFD7E0"/>
<path d="M228.772 592.782C231.488 590.431 235.527 590.854 238.02 593.467L238.997 594.489L239.973 593.467C242.461 590.854 246.505 590.431 249.221 592.782C252.334 595.481 252.497 600.324 249.712 603.25L240.122 613.309C239.502 613.958 238.496 613.958 237.877 613.309L228.287 603.25C225.496 600.324 225.66 595.481 228.772 592.782Z" fill="#FFD7E0"/>
<path d="M309.128 592.782C311.844 590.431 315.884 590.854 318.376 593.467L319.353 594.489L320.329 593.467C322.817 590.854 326.861 590.431 329.577 592.782C332.69 595.481 332.853 600.324 330.068 603.25L320.478 613.309C319.858 613.958 318.852 613.958 318.233 613.309L308.643 603.25C305.852 600.324 306.016 595.481 309.128 592.782Z" fill="#FFD7E0"/>
<path d="M389.485 592.782C392.2 590.431 396.24 590.854 398.733 593.467L399.709 594.489L400.685 593.467C403.173 590.854 407.217 590.431 409.933 592.782C413.046 595.481 413.209 600.324 410.424 603.25L400.834 613.309C400.214 613.958 399.208 613.958 398.589 613.309L388.999 603.25C386.209 600.324 386.372 595.481 389.485 592.782Z" fill="#FFD7E0"/>
<path d="M470.686 592.782C473.402 590.431 477.442 590.854 479.934 593.467L480.911 594.489L481.887 593.467C484.375 590.854 488.419 590.431 491.135 592.782C494.248 595.481 494.411 600.324 491.626 603.25L482.036 613.309C481.416 613.958 480.41 613.958 479.791 613.309L470.201 603.25C467.41 600.324 467.574 595.481 470.686 592.782Z" fill="#FFD7E0"/>
<path d="M551.043 592.782C553.758 590.431 557.798 590.854 560.291 593.467L561.267 594.489L562.243 593.467C564.731 590.854 568.775 590.431 571.491 592.782C574.604 595.481 574.767 600.324 571.982 603.25L562.392 613.309C561.772 613.958 560.766 613.958 560.147 613.309L550.557 603.25C547.767 600.324 547.93 595.481 551.043 592.782Z" fill="#FFD7E0"/>
<path d="M630.553 592.782C633.269 590.431 637.308 590.854 639.801 593.467L640.777 594.489L641.754 593.467C644.241 590.854 648.286 590.431 651.002 592.782C654.114 595.481 654.278 600.324 651.492 603.25L641.902 613.309C641.283 613.958 640.277 613.958 639.657 613.309L630.067 603.25C627.277 600.324 627.44 595.481 630.553 592.782Z" fill="#FFD7E0"/>
<path d="M712.601 592.782C715.317 590.431 719.356 590.854 721.849 593.467L722.825 594.489L723.801 593.467C726.289 590.854 730.333 590.431 733.049 592.782C736.162 595.481 736.325 600.324 733.54 603.25L723.95 613.309C723.331 613.958 722.324 613.958 721.705 613.309L712.115 603.25C709.325 600.324 709.488 595.481 712.601 592.782Z" fill="#FFD7E0"/>
<path d="M793.803 592.782C796.518 590.431 800.558 590.854 803.051 593.467L804.027 594.489L805.003 593.467C807.491 590.854 811.535 590.431 814.251 592.782C817.364 595.481 817.527 600.324 814.742 603.25L805.152 613.309C804.532 613.958 803.526 613.958 802.907 613.309L793.317 603.25C790.527 600.324 790.69 595.481 793.803 592.782Z" fill="#FFD7E0"/>
<path d="M66.3684 673.138C69.0844 670.787 73.1236 671.21 75.6165 673.823L76.5928 674.845L77.5692 673.823C80.0571 671.21 84.1013 670.787 86.8172 673.138C89.9296 675.837 90.0932 680.68 87.3079 683.606L77.7179 693.665C77.0984 694.315 76.0923 694.315 75.4728 693.665L65.8828 683.606C63.0925 680.68 63.256 675.837 66.3684 673.138Z" fill="#FFD7E0"/>
<path d="M147.57 673.138C150.286 670.787 154.325 671.21 156.818 673.823L157.795 674.845L158.771 673.823C161.259 671.21 165.303 670.787 168.019 673.138C171.132 675.837 171.295 680.68 168.51 683.606L158.92 693.665C158.3 694.315 157.294 694.315 156.675 693.665L147.085 683.606C144.294 680.68 144.458 675.837 147.57 673.138Z" fill="#FFD7E0"/>
<path d="M228.772 673.138C231.488 670.787 235.527 671.21 238.02 673.823L238.997 674.845L239.973 673.823C242.461 671.21 246.505 670.787 249.221 673.138C252.334 675.837 252.497 680.68 249.712 683.606L240.122 693.665C239.502 694.315 238.496 694.315 237.877 693.665L228.287 683.606C225.496 680.68 225.66 675.837 228.772 673.138Z" fill="#FFD7E0"/>
<path d="M309.128 673.138C311.844 670.787 315.884 671.21 318.376 673.823L319.353 674.845L320.329 673.823C322.817 671.21 326.861 670.787 329.577 673.138C332.69 675.837 332.853 680.68 330.068 683.606L320.478 693.665C319.858 694.315 318.852 694.315 318.233 693.665L308.643 683.606C305.852 680.68 306.016 675.837 309.128 673.138Z" fill="#FFD7E0"/>
<path d="M389.485 673.138C392.2 670.787 396.24 671.21 398.733 673.823L399.709 674.845L400.685 673.823C403.173 671.21 407.217 670.787 409.933 673.138C413.046 675.837 413.209 680.68 410.424 683.606L400.834 693.665C400.214 694.315 399.208 694.315 398.589 693.665L388.999 683.606C386.209 680.68 386.372 675.837 389.485 673.138Z" fill="#FFD7E0"/>
<path d="M470.686 673.138C473.402 670.787 477.442 671.21 479.934 673.823L480.911 674.845L481.887 673.823C484.375 671.21 488.419 670.787 491.135 673.138C494.248 675.837 494.411 680.68 491.626 683.606L482.036 693.665C481.416 694.315 480.41 694.315 479.791 693.665L470.201 683.606C467.41 680.68 467.574 675.837 470.686 673.138Z" fill="#FFD7E0"/>
<path d="M551.043 673.138C553.758 670.787 557.798 671.21 560.291 673.823L561.267 674.845L562.243 673.823C564.731 671.21 568.775 670.787 571.491 673.138C574.604 675.837 574.767 680.68 571.982 683.606L562.392 693.665C561.772 694.315 560.766 694.315 560.147 693.665L550.557 683.606C547.767 680.68 547.93 675.837 551.043 673.138Z" fill="#FFD7E0"/>
<path d="M630.553 673.138C633.269 670.787 637.308 671.21 639.801 673.823L640.777 674.845L641.754 673.823C644.241 671.21 648.286 670.787 651.002 673.138C654.114 675.837 654.278 680.68 651.492 683.606L641.902 693.665C641.283 694.315 640.277 694.315 639.657 693.665L630.067 683.606C627.277 680.68 627.44 675.837 630.553 673.138Z" fill="#FFD7E0"/>
<path d="M712.601 673.138C715.317 670.787 719.356 671.21 721.849 673.823L722.825 674.845L723.801 673.823C726.289 671.21 730.333 670.787 733.049 673.138C736.162 675.837 736.325 680.68 733.54 683.606L723.95 693.665C723.331 694.315 722.324 694.315 721.705 693.665L712.115 683.606C709.325 680.68 709.488 675.837 712.601 673.138Z" fill="#FFD7E0"/>
<path d="M793.803 673.138C796.518 670.787 800.558 671.21 803.051 673.823L804.027 674.845L805.003 673.823C807.491 671.21 811.535 670.787 814.251 673.138C817.364 675.837 817.527 680.68 814.742 683.606L805.152 693.665C804.532 694.315 803.526 694.315 802.907 693.665L793.317 683.606C790.527 680.68 790.69 675.837 793.803 673.138Z" fill="#FFD7E0"/>
<g style="mix-blend-mode:multiply">
<rect x="1226.47" y="-33" width="40.601" height="866.154" fill="#FFEEF2"/>
<rect x="1145.27" y="-32.1541" width="40.601" height="866.154" fill="#FFEEF2"/>
<rect x="1067.45" y="-32.1541" width="40.601" height="866.154" fill="#FFEEF2"/>
<rect x="986.25" y="-32.1541" width="40.601" height="866.154" fill="#FFEEF2"/>
<rect x="905.048" y="-32.1541" width="40.601" height="866.154" fill="#FFEEF2"/>
</g>
<path d="M874.523 29.3281C877.239 27.1532 881.278 27.5444 883.771 29.9615L884.747 30.9069L885.723 29.9615C888.211 27.5444 892.255 27.1532 894.971 29.3281C898.084 31.8243 898.247 36.3045 895.462 39.0103L885.872 48.3153C885.253 48.916 884.246 48.916 883.627 48.3153L874.037 39.0103C871.247 36.3045 871.41 31.8243 874.523 29.3281Z" fill="#FFD7E0"/>
<path d="M955.725 29.4438C958.44 27.0925 962.48 27.5155 964.973 30.1285L965.949 31.1505L966.925 30.1285C969.413 27.5155 973.457 27.0925 976.173 29.4438C979.286 32.1424 979.449 36.9858 976.664 39.911L967.074 49.9704C966.454 50.6199 965.448 50.6199 964.829 49.9704L955.239 39.911C952.449 36.9858 952.612 32.1424 955.725 29.4438Z" fill="#FFD7E0"/>
<path d="M1036.93 29.4438C1039.64 27.0925 1043.68 27.5155 1046.17 30.1285L1047.15 31.1505L1048.13 30.1285C1050.62 27.5155 1054.66 27.0925 1057.38 29.4438C1060.49 32.1424 1060.65 36.9858 1057.87 39.911L1048.28 49.9704C1047.66 50.6199 1046.65 50.6199 1046.03 49.9704L1036.44 39.911C1033.65 36.9858 1033.81 32.1424 1036.93 29.4438Z" fill="#FFD7E0"/>
<path d="M1117.28 29.4438C1120 27.0925 1124.04 27.5155 1126.53 30.1285L1127.51 31.1505L1128.48 30.1285C1130.97 27.5155 1135.02 27.0925 1137.73 29.4438C1140.84 32.1424 1141.01 36.9858 1138.22 39.911L1128.63 49.9704C1128.01 50.6199 1127.01 50.6199 1126.39 49.9704L1116.8 39.911C1114.01 36.9858 1114.17 32.1424 1117.28 29.4438Z" fill="#FFD7E0"/>
<path d="M1197.64 29.4438C1200.35 27.0925 1204.39 27.5155 1206.89 30.1285L1207.86 31.1505L1208.84 30.1285C1211.33 27.5155 1215.37 27.0925 1218.09 29.4438C1221.2 32.1424 1221.36 36.9858 1218.58 39.911L1208.99 49.9704C1208.37 50.6199 1207.36 50.6199 1206.74 49.9704L1197.15 39.911C1194.36 36.9858 1194.53 32.1424 1197.64 29.4438Z" fill="#FFD7E0"/>
<path d="M874.523 109.8C877.239 107.449 881.278 107.872 883.771 110.485L884.747 111.507L885.723 110.485C888.211 107.872 892.255 107.449 894.971 109.8C898.084 112.499 898.247 117.342 895.462 120.267L885.872 130.327C885.253 130.976 884.246 130.976 883.627 130.327L874.037 120.267C871.247 117.342 871.41 112.499 874.523 109.8Z" fill="#FFD7E0"/>
<path d="M955.725 109.8C958.44 107.449 962.48 107.872 964.973 110.485L965.949 111.507L966.925 110.485C969.413 107.872 973.457 107.449 976.173 109.8C979.286 112.499 979.449 117.342 976.664 120.267L967.074 130.327C966.454 130.976 965.448 130.976 964.829 130.327L955.239 120.267C952.449 117.342 952.612 112.499 955.725 109.8Z" fill="#FFD7E0"/>
<path d="M1036.93 109.8C1039.64 107.449 1043.68 107.872 1046.17 110.485L1047.15 111.507L1048.13 110.485C1050.62 107.872 1054.66 107.449 1057.38 109.8C1060.49 112.499 1060.65 117.342 1057.87 120.267L1048.28 130.327C1047.66 130.976 1046.65 130.976 1046.03 130.327L1036.44 120.267C1033.65 117.342 1033.81 112.499 1036.93 109.8Z" fill="#FFD7E0"/>
<path d="M1117.28 109.8C1120 107.449 1124.04 107.872 1126.53 110.485L1127.51 111.507L1128.48 110.485C1130.97 107.872 1135.02 107.449 1137.73 109.8C1140.84 112.499 1141.01 117.342 1138.22 120.267L1128.63 130.327C1128.01 130.976 1127.01 130.976 1126.39 130.327L1116.8 120.267C1114.01 117.342 1114.17 112.499 1117.28 109.8Z" fill="#FFD7E0"/>
<path d="M1197.64 109.8C1200.35 107.449 1204.39 107.872 1206.89 110.485L1207.86 111.507L1208.84 110.485C1211.33 107.872 1215.37 107.449 1218.09 109.8C1221.2 112.499 1221.36 117.342 1218.58 120.267L1208.99 130.327C1208.37 130.976 1207.36 130.976 1206.74 130.327L1197.15 120.267C1194.36 117.342 1194.53 112.499 1197.64 109.8Z" fill="#FFD7E0"/>
<path d="M874.523 191.002C877.239 188.651 881.278 189.074 883.771 191.687L884.747 192.709L885.723 191.687C888.211 189.074 892.255 188.651 894.971 191.002C898.084 193.7 898.247 198.544 895.462 201.469L885.872 211.528C885.253 212.178 884.246 212.178 883.627 211.528L874.037 201.469C871.247 198.544 871.41 193.7 874.523 191.002Z" fill="#FFD7E0"/>
<path d="M955.725 191.002C958.44 188.651 962.48 189.074 964.973 191.687L965.949 192.709L966.925 191.687C969.413 189.074 973.457 188.651 976.173 191.002C979.286 193.7 979.449 198.544 976.664 201.469L967.074 211.528C966.454 212.178 965.448 212.178 964.829 211.528L955.239 201.469C952.449 198.544 952.612 193.7 955.725 191.002Z" fill="#FFD7E0"/>
<path d="M1036.93 191.002C1039.64 188.651 1043.68 189.074 1046.17 191.687L1047.15 192.709L1048.13 191.687C1050.62 189.074 1054.66 188.651 1057.38 191.002C1060.49 193.7 1060.65 198.544 1057.87 201.469L1048.28 211.528C1047.66 212.178 1046.65 212.178 1046.03 211.528L1036.44 201.469C1033.65 198.544 1033.81 193.7 1036.93 191.002Z" fill="#FFD7E0"/>
<path d="M1117.28 191.002C1120 188.651 1124.04 189.074 1126.53 191.687L1127.51 192.709L1128.48 191.687C1130.97 189.074 1135.02 188.651 1137.73 191.002C1140.84 193.7 1141.01 198.544 1138.22 201.469L1128.63 211.528C1128.01 212.178 1127.01 212.178 1126.39 211.528L1116.8 201.469C1114.01 198.544 1114.17 193.7 1117.28 191.002Z" fill="#FFD7E0"/>
<path d="M1197.64 191.002C1200.35 188.651 1204.39 189.074 1206.89 191.687L1207.86 192.709L1208.84 191.687C1211.33 189.074 1215.37 188.651 1218.09 191.002C1221.2 193.7 1221.36 198.544 1218.58 201.469L1208.99 211.528C1208.37 212.178 1207.36 212.178 1206.74 211.528L1197.15 201.469C1194.36 198.544 1194.53 193.7 1197.64 191.002Z" fill="#FFD7E0"/>
<path d="M874.523 271.358C877.239 269.007 881.278 269.43 883.771 272.043L884.747 273.065L885.723 272.043C888.211 269.43 892.255 269.007 894.971 271.358C898.084 274.057 898.247 278.9 895.462 281.825L885.872 291.885C885.253 292.534 884.246 292.534 883.627 291.885L874.037 281.825C871.247 278.9 871.41 274.057 874.523 271.358Z" fill="#FFD7E0"/>
<path d="M955.725 271.358C958.44 269.007 962.48 269.43 964.973 272.043L965.949 273.065L966.925 272.043C969.413 269.43 973.457 269.007 976.173 271.358C979.286 274.057 979.449 278.9 976.664 281.825L967.074 291.885C966.454 292.534 965.448 292.534 964.829 291.885L955.239 281.825C952.449 278.9 952.612 274.057 955.725 271.358Z" fill="#FFD7E0"/>
<path d="M1036.93 271.358C1039.64 269.007 1043.68 269.43 1046.17 272.043L1047.15 273.065L1048.13 272.043C1050.62 269.43 1054.66 269.007 1057.38 271.358C1060.49 274.057 1060.65 278.9 1057.87 281.825L1048.28 291.885C1047.66 292.534 1046.65 292.534 1046.03 291.885L1036.44 281.825C1033.65 278.9 1033.81 274.057 1036.93 271.358Z" fill="#FFD7E0"/>
<path d="M1117.28 271.358C1120 269.007 1124.04 269.43 1126.53 272.043L1127.51 273.065L1128.48 272.043C1130.97 269.43 1135.02 269.007 1137.73 271.358C1140.84 274.057 1141.01 278.9 1138.22 281.825L1128.63 291.885C1128.01 292.534 1127.01 292.534 1126.39 291.885L1116.8 281.825C1114.01 278.9 1114.17 274.057 1117.28 271.358Z" fill="#FFD7E0"/>
<path d="M1197.64 271.358C1200.35 269.007 1204.39 269.43 1206.89 272.043L1207.86 273.065L1208.84 272.043C1211.33 269.43 1215.37 269.007 1218.09 271.358C1221.2 274.057 1221.36 278.9 1218.58 281.825L1208.99 291.885C1208.37 292.534 1207.36 292.534 1206.74 291.885L1197.15 281.825C1194.36 278.9 1194.53 274.057 1197.64 271.358Z" fill="#FFD7E0"/>
<path d="M874.523 353.406C877.239 351.054 881.278 351.477 883.771 354.09L884.747 355.112L885.723 354.09C888.211 351.477 892.255 351.054 894.971 353.406C898.084 356.104 898.247 360.948 895.462 363.873L885.872 373.932C885.253 374.582 884.246 374.582 883.627 373.932L874.037 363.873C871.247 360.948 871.41 356.104 874.523 353.406Z" fill="#FFD7E0"/>
<path d="M955.725 353.406C958.44 351.054 962.48 351.477 964.973 354.09L965.949 355.112L966.925 354.09C969.413 351.477 973.457 351.054 976.173 353.406C979.286 356.104 979.449 360.948 976.664 363.873L967.074 373.932C966.454 374.582 965.448 374.582 964.829 373.932L955.239 363.873C952.449 360.948 952.612 356.104 955.725 353.406Z" fill="#FFD7E0"/>
<path d="M1036.93 353.406C1039.64 351.054 1043.68 351.477 1046.17 354.09L1047.15 355.112L1048.13 354.09C1050.62 351.477 1054.66 351.054 1057.38 353.406C1060.49 356.104 1060.65 360.948 1057.87 363.873L1048.28 373.932C1047.66 374.582 1046.65 374.582 1046.03 373.932L1036.44 363.873C1033.65 360.948 1033.81 356.104 1036.93 353.406Z" fill="#FFD7E0"/>
<path d="M1117.28 353.406C1120 351.054 1124.04 351.477 1126.53 354.09L1127.51 355.112L1128.48 354.09C1130.97 351.477 1135.02 351.054 1137.73 353.406C1140.84 356.104 1141.01 360.948 1138.22 363.873L1128.63 373.932C1128.01 374.582 1127.01 374.582 1126.39 373.932L1116.8 363.873C1114.01 360.948 1114.17 356.104 1117.28 353.406Z" fill="#FFD7E0"/>
<path d="M1197.64 353.406C1200.35 351.054 1204.39 351.477 1206.89 354.09L1207.86 355.112L1208.84 354.09C1211.33 351.477 1215.37 351.054 1218.09 353.406C1221.2 356.104 1221.36 360.948 1218.58 363.873L1208.99 373.932C1208.37 374.582 1207.36 374.582 1206.74 373.932L1197.15 363.873C1194.36 360.948 1194.53 356.104 1197.64 353.406Z" fill="#FFD7E0"/>
<path d="M874.523 433.762C877.239 431.411 881.278 431.834 883.771 434.447L884.747 435.469L885.723 434.447C888.211 431.834 892.255 431.411 894.971 433.762C898.084 436.46 898.247 441.304 895.462 444.229L885.872 454.288C885.253 454.938 884.246 454.938 883.627 454.288L874.037 444.229C871.247 441.304 871.41 436.46 874.523 433.762Z" fill="#FFD7E0"/>
<path d="M955.725 433.762C958.44 431.411 962.48 431.834 964.973 434.447L965.949 435.469L966.925 434.447C969.413 431.834 973.457 431.411 976.173 433.762C979.286 436.46 979.449 441.304 976.664 444.229L967.074 454.288C966.454 454.938 965.448 454.938 964.829 454.288L955.239 444.229C952.449 441.304 952.612 436.46 955.725 433.762Z" fill="#FFD7E0"/>
<path d="M1036.93 433.762C1039.64 431.411 1043.68 431.834 1046.17 434.447L1047.15 435.469L1048.13 434.447C1050.62 431.834 1054.66 431.411 1057.38 433.762C1060.49 436.46 1060.65 441.304 1057.87 444.229L1048.28 454.288C1047.66 454.938 1046.65 454.938 1046.03 454.288L1036.44 444.229C1033.65 441.304 1033.81 436.46 1036.93 433.762Z" fill="#FFD7E0"/>
<path d="M1117.28 433.762C1120 431.411 1124.04 431.834 1126.53 434.447L1127.51 435.469L1128.48 434.447C1130.97 431.834 1135.02 431.411 1137.73 433.762C1140.84 436.46 1141.01 441.304 1138.22 444.229L1128.63 454.288C1128.01 454.938 1127.01 454.938 1126.39 454.288L1116.8 444.229C1114.01 441.304 1114.17 436.46 1117.28 433.762Z" fill="#FFD7E0"/>
<path d="M1197.64 433.762C1200.35 431.411 1204.39 431.834 1206.89 434.447L1207.86 435.469L1208.84 434.447C1211.33 431.834 1215.37 431.411 1218.09 433.762C1221.2 436.46 1221.36 441.304 1218.58 444.229L1208.99 454.288C1208.37 454.938 1207.36 454.938 1206.74 454.288L1197.15 444.229C1194.36 441.304 1194.53 436.46 1197.64 433.762Z" fill="#FFD7E0"/>
<path d="M874.523 513.272C877.239 510.921 881.278 511.344 883.771 513.957L884.747 514.979L885.723 513.957C888.211 511.344 892.255 510.921 894.971 513.272C898.084 515.971 898.247 520.814 895.462 523.739L885.872 533.799C885.253 534.448 884.246 534.448 883.627 533.799L874.037 523.739C871.247 520.814 871.41 515.971 874.523 513.272Z" fill="#FFD7E0"/>
<path d="M955.725 513.272C958.44 510.921 962.48 511.344 964.973 513.957L965.949 514.979L966.925 513.957C969.413 511.344 973.457 510.921 976.173 513.272C979.286 515.971 979.449 520.814 976.664 523.739L967.074 533.799C966.454 534.448 965.448 534.448 964.829 533.799L955.239 523.739C952.449 520.814 952.612 515.971 955.725 513.272Z" fill="#FFD7E0"/>
<path d="M1036.93 513.272C1039.64 510.921 1043.68 511.344 1046.17 513.957L1047.15 514.979L1048.13 513.957C1050.62 511.344 1054.66 510.921 1057.38 513.272C1060.49 515.971 1060.65 520.814 1057.87 523.739L1048.28 533.799C1047.66 534.448 1046.65 534.448 1046.03 533.799L1036.44 523.739C1033.65 520.814 1033.81 515.971 1036.93 513.272Z" fill="#FFD7E0"/>
<path d="M1117.28 513.272C1120 510.921 1124.04 511.344 1126.53 513.957L1127.51 514.979L1128.48 513.957C1130.97 511.344 1135.02 510.921 1137.73 513.272C1140.84 515.971 1141.01 520.814 1138.22 523.739L1128.63 533.799C1128.01 534.448 1127.01 534.448 1126.39 533.799L1116.8 523.739C1114.01 520.814 1114.17 515.971 1117.28 513.272Z" fill="#FFD7E0"/>
<path d="M1197.64 513.272C1200.35 510.921 1204.39 511.344 1206.89 513.957L1207.86 514.979L1208.84 513.957C1211.33 511.344 1215.37 510.921 1218.09 513.272C1221.2 515.971 1221.36 520.814 1218.58 523.739L1208.99 533.799C1208.37 534.448 1207.36 534.448 1206.74 533.799L1197.15 523.739C1194.36 520.814 1194.53 515.971 1197.64 513.272Z" fill="#FFD7E0"/>
<path d="M874.523 592.782C877.239 590.431 881.278 590.854 883.771 593.467L884.747 594.489L885.723 593.467C888.211 590.854 892.255 590.431 894.971 592.782C898.084 595.481 898.247 600.324 895.462 603.25L885.872 613.309C885.253 613.958 884.246 613.958 883.627 613.309L874.037 603.25C871.247 600.324 871.41 595.481 874.523 592.782Z" fill="#FFD7E0"/>
<path d="M955.725 592.782C958.44 590.431 962.48 590.854 964.973 593.467L965.949 594.489L966.925 593.467C969.413 590.854 973.457 590.431 976.173 592.782C979.286 595.481 979.449 600.324 976.664 603.25L967.074 613.309C966.454 613.958 965.448 613.958 964.829 613.309L955.239 603.25C952.449 600.324 952.612 595.481 955.725 592.782Z" fill="#FFD7E0"/>
<path d="M1036.93 592.782C1039.64 590.431 1043.68 590.854 1046.17 593.467L1047.15 594.489L1048.13 593.467C1050.62 590.854 1054.66 590.431 1057.38 592.782C1060.49 595.481 1060.65 600.324 1057.87 603.25L1048.28 613.309C1047.66 613.958 1046.65 613.958 1046.03 613.309L1036.44 603.25C1033.65 600.324 1033.81 595.481 1036.93 592.782Z" fill="#FFD7E0"/>
<path d="M1117.28 592.782C1120 590.431 1124.04 590.854 1126.53 593.467L1127.51 594.489L1128.48 593.467C1130.97 590.854 1135.02 590.431 1137.73 592.782C1140.84 595.481 1141.01 600.324 1138.22 603.25L1128.63 613.309C1128.01 613.958 1127.01 613.958 1126.39 613.309L1116.8 603.25C1114.01 600.324 1114.17 595.481 1117.28 592.782Z" fill="#FFD7E0"/>
<path d="M1197.64 592.782C1200.35 590.431 1204.39 590.854 1206.89 593.467L1207.86 594.489L1208.84 593.467C1211.33 590.854 1215.37 590.431 1218.09 592.782C1221.2 595.481 1221.36 600.324 1218.58 603.25L1208.99 613.309C1208.37 613.958 1207.36 613.958 1206.74 613.309L1197.15 603.25C1194.36 600.324 1194.53 595.481 1197.64 592.782Z" fill="#FFD7E0"/>
<path d="M874.523 673.138C877.239 670.787 881.278 671.21 883.771 673.823L884.747 674.845L885.723 673.823C888.211 671.21 892.255 670.787 894.971 673.138C898.084 675.837 898.247 680.68 895.462 683.606L885.872 693.665C885.253 694.315 884.246 694.315 883.627 693.665L874.037 683.606C871.247 680.68 871.41 675.837 874.523 673.138Z" fill="#FFD7E0"/>
<path d="M955.725 673.138C958.44 670.787 962.48 671.21 964.973 673.823L965.949 674.845L966.925 673.823C969.413 671.21 973.457 670.787 976.173 673.138C979.286 675.837 979.449 680.68 976.664 683.606L967.074 693.665C966.454 694.315 965.448 694.315 964.829 693.665L955.239 683.606C952.449 680.68 952.612 675.837 955.725 673.138Z" fill="#FFD7E0"/>
<path d="M1036.93 673.138C1039.64 670.787 1043.68 671.21 1046.17 673.823L1047.15 674.845L1048.13 673.823C1050.62 671.21 1054.66 670.787 1057.38 673.138C1060.49 675.837 1060.65 680.68 1057.87 683.606L1048.28 693.665C1047.66 694.315 1046.65 694.315 1046.03 693.665L1036.44 683.606C1033.65 680.68 1033.81 675.837 1036.93 673.138Z" fill="#FFD7E0"/>
<path d="M1117.28 673.138C1120 670.787 1124.04 671.21 1126.53 673.823L1127.51 674.845L1128.48 673.823C1130.97 671.21 1135.02 670.787 1137.73 673.138C1140.84 675.837 1141.01 680.68 1138.22 683.606L1128.63 693.665C1128.01 694.315 1127.01 694.315 1126.39 693.665L1116.8 683.606C1114.01 680.68 1114.17 675.837 1117.28 673.138Z" fill="#FFD7E0"/>
<path d="M1197.64 673.138C1200.35 670.787 1204.39 671.21 1206.89 673.823L1207.86 674.845L1208.84 673.823C1211.33 671.21 1215.37 670.787 1218.09 673.138C1221.2 675.837 1221.36 680.68 1218.58 683.606L1208.99 693.665C1208.37 694.315 1207.36 694.315 1206.74 693.665L1197.15 683.606C1194.36 680.68 1194.53 675.837 1197.64 673.138Z" fill="#FFD7E0"/>
</g>
<defs>
<clipPath id="clip0_8_355">
<rect width="1280" height="720" fill="white"/>
</clipPath>
</defs>
</svg>
